<?xml version="1.0" encoding="UTF-8" standalone="no"?>
<!-- Created with Inkscape (http://www.inkscape.org/) -->

<svg
   width="135mm"
   height="60mm"
   viewBox="0 0 135 60"
   version="1.1"
   id="svg1"
   xml:space="preserve"
   inkscape:version="1.4 (86a8ad7, 2024-10-11)"
   sodipodi:docname="full_final.svg"
   inkscape:export-filename="full_final_h120.png"
   inkscape:export-xdpi="60.959999"
   inkscape:export-ydpi="60.959999"
   xmlns:inkscape="http://www.inkscape.org/namespaces/inkscape"
   xmlns:sodipodi="http://sodipodi.sourceforge.net/DTD/sodipodi-0.dtd"
   xmlns="http://www.w3.org/2000/svg"
   xmlns:svg="http://www.w3.org/2000/svg"><sodipodi:namedview
     id="namedview1"
     pagecolor="#ffffff"
     bordercolor="#000000"
     borderopacity="0.25"
     inkscape:showpageshadow="false"
     inkscape:pageopacity="0.0"
     inkscape:pagecheckerboard="0"
     inkscape:deskcolor="#d1d1d1"
     inkscape:document-units="mm"
     showgrid="false"
     inkscape:zoom="2.0000002"
     inkscape:cx="254.24998"
     inkscape:cy="152.24999"
     inkscape:window-width="1920"
     inkscape:window-height="1009"
     inkscape:window-x="-8"
     inkscape:window-y="-8"
     inkscape:window-maximized="1"
     inkscape:current-layer="layer2"
     inkscape:export-bgcolor="#ffffff00"
     showborder="false"
     borderlayer="false"><inkscape:grid
       id="grid15"
       units="mm"
       originx="-44.999996"
       originy="-205.00002"
       spacingx="0.99999998"
       spacingy="1"
       empcolor="#0099e5"
       empopacity="0.30196078"
       color="#0099e5"
       opacity="0.14901961"
       empspacing="5"
       enabled="true"
       visible="false" /><inkscape:page
       x="9.3425335e-14"
       y="0"
       width="130.34283"
       height="50.000004"
       id="page2"
       margin="0"
       bleed="0" /></sodipodi:namedview><defs
     id="defs1"><linearGradient
       id="swatch9"
       inkscape:swatch="solid"><stop
         style="stop-color:#0d6ede;stop-opacity:1;"
         offset="0"
         id="stop9" /></linearGradient></defs><g
     inkscape:groupmode="layer"
     id="layer2"
     inkscape:label="Layer 2"
     style="display:inline"
     transform="translate(-38,-200)"><path
       id="path45"
       style="opacity:1;fill:#2b3844;fill-opacity:1;stroke:none;stroke-width:0.278133;stroke-opacity:1"
       d="M 81.212361,220 A 12.937646,12.499892 0 0 0 68.274525,232.50026 12.937646,12.499892 0 0 0 81.212361,245 12.937646,12.499892 0 0 0 94.150198,232.50026 12.937646,12.499892 0 0 0 81.212361,220 Z m -0.05389,4.21767 a 8.1481578,8.3037826 0 0 1 8.148078,8.30384 8.1481578,8.3037826 0 0 1 -8.148078,8.30385 8.1481578,8.3037826 0 0 1 -8.14857,-8.30385 8.1481578,8.3037826 0 0 1 8.14857,-8.30384 z"
       inkscape:label="let_O"
       inkscape:export-filename="full_v3.png"
       inkscape:export-xdpi="300"
       inkscape:export-ydpi="300" /><path
       style="opacity:1;fill:#2b3844;fill-opacity:1;stroke:none;stroke-width:0.261208;stroke-opacity:1"
       d="M 126.06269,224.55693 131.08803,220 l 0.0346,20.34291 12.95492,0.0461 -4.61685,4.60397 -13.39825,0.007 z"
       id="path47"
       inkscape:label="let_L"
       sodipodi:nodetypes="ccccccc" /><path
       style="opacity:1;fill:#2b3844;fill-opacity:1;stroke:none;stroke-width:0.260651;stroke-opacity:1"
       d="m 141.56332,220.06923 5.47439,0.0115 6.91128,11.24964 7.093,-11.24964 5.36329,-0.003 -9.85247,15.96739 -0.008,5.93129 -5.15604,2.93325 0.0244,-8.8645 z"
       id="path48"
       inkscape:label="let_Y"
       sodipodi:nodetypes="cccccccccc" /><path
       id="path51"
       style="opacity:1;fill:#2b3844;fill-opacity:1;stroke:none;stroke-width:0.278138;stroke-opacity:1"
       d="m 44,232.49992 c 8e-5,6.90369 5.792689,12.50015 12.93814,12.50005 3.690071,-0.004 7.202714,-1.53047 9.654406,-4.19503 l -3.330214,-3.10523 v -0.0133 c -1.545314,1.98247 -3.893688,3.13819 -6.378089,3.13885 -4.500388,2.3e-4 -8.148788,-3.71768 -8.148764,-8.30403 -2.4e-5,-4.58633 3.648376,-8.30424 8.148764,-8.30401 2.506376,3e-5 4.87329,1.17555 6.417646,3.18731 l 3.346532,-3.1606 C 63.895003,221.64631 60.357597,220.0338 56.814204,220 50.720044,219.99931 43.9998,225.59607 44,232.49994 Z"
       inkscape:label="let_C"
       sodipodi:nodetypes="cccccccccccc" /><path
       style="fill:#1996a0;fill-opacity:1;stroke:none;stroke-width:0.0867753"
       d="M 97.779909,220.09789 129.66378,205 l -3.69945,8.86328 -21.88598,10.36112 -0.034,30.7756 -6.277701,-6.959"
       id="path56"
       sodipodi:nodetypes="cccccc" /><path
       style="fill:#1996a0;fill-opacity:1;stroke:none;stroke-width:0.0867753"
       d="m 107.01497,226.10986 14.18061,-6.69722 -14.18988,27.03307 0.0241,-13.34895 z"
       id="path57"
       sodipodi:nodetypes="ccccc" /></g></svg>
