<?xml version="1.0" encoding="UTF-8" standalone="no"?>
<!-- Created with Inkscape (http://www.inkscape.org/) -->

<svg
   width="175mm"
   height="60mm"
   viewBox="0 0 175 60"
   version="1.1"
   id="svg1"
   xml:space="preserve"
   sodipodi:docname="cofly-logo-dark.svg"
   inkscape:version="1.4 (86a8ad7, 2024-10-11)"
   xmlns:inkscape="http://www.inkscape.org/namespaces/inkscape"
   xmlns:sodipodi="http://sodipodi.sourceforge.net/DTD/sodipodi-0.dtd"
   xmlns="http://www.w3.org/2000/svg"
   xmlns:svg="http://www.w3.org/2000/svg"><sodipodi:namedview
     id="namedview1"
     pagecolor="#ffffff"
     bordercolor="#000000"
     borderopacity="0.25"
     inkscape:showpageshadow="2"
     inkscape:pageopacity="0.0"
     inkscape:pagecheckerboard="0"
     inkscape:deskcolor="#d1d1d1"
     inkscape:document-units="mm"
     inkscape:zoom="1.1196875"
     inkscape:cx="187.55233"
     inkscape:cy="190.6782"
     inkscape:window-width="1920"
     inkscape:window-height="1009"
     inkscape:window-x="-8"
     inkscape:window-y="-8"
     inkscape:window-maximized="1"
     inkscape:current-layer="layer2" /><defs
     id="defs1"><linearGradient
       id="swatch9"><stop
         style="stop-color:#0d6ede;stop-opacity:1;"
         offset="0"
         id="stop9" /></linearGradient></defs><g
     id="layer2"
     style="display:inline"
     transform="translate(-203.23204,87.107579)"><path
       style="display:inline;opacity:1;fill:#ffffff;fill-opacity:1;stroke:none;stroke-width:0.26381;stroke-opacity:1"
       d="m 303.03985,-68.021758 18.39904,-0.01534 -1.5825,4.1551 -11.85656,0.0483 0.10135,6.99684 7.28327,-0.0125 -1.5945,4.03563 -5.74093,0.0521 -0.0179,9.72449 -4.91631,-0.0397 z"
       id="path11" /><path
       id="path16"
       style="opacity:1;fill:#ffffff;fill-opacity:1;stroke:none;stroke-width:0.278132;stroke-opacity:1"
       d="m 286.56441,-68.037098 a 12.937651,12.499897 0 0 0 -12.93784,12.50026 12.937651,12.499897 0 0 0 12.93784,12.49974 12.937651,12.499897 0 0 0 12.93785,-12.49974 12.937651,12.499897 0 0 0 -12.93785,-12.50026 z m -0.0539,4.21766 a 8.148161,8.3037858 0 0 1 8.14808,8.30385 8.148161,8.3037858 0 0 1 -8.14808,8.30384 8.148161,8.3037858 0 0 1 -8.14857,-8.30384 8.148161,8.3037858 0 0 1 8.14857,-8.30385 z" /><path
       id="path17"
       style="opacity:1;fill:#ffffff;fill-opacity:1;stroke:none;stroke-width:0.278138;stroke-opacity:1"
       d="m 250.10572,-55.535548 c 8e-5,6.90369 5.79269,12.50015 12.93814,12.50005 3.69007,-0.004 7.20271,-1.53048 9.6544,-4.19504 l -3.33021,-3.10523 v -0.0133 c -1.54532,1.98247 -3.89369,3.13818 -6.37809,3.13885 -4.50039,2.3e-4 -8.14879,-3.71768 -8.14876,-8.30403 -3e-5,-4.58633 3.64837,-8.30424 8.14876,-8.30401 2.50637,3e-5 4.87329,1.17556 6.41764,3.1873 l 3.34653,-3.1606 c -2.75341,-2.59762 -6.29082,-4.21014 -9.83421,-4.24394 -6.09416,-6.7e-4 -12.8144,5.5961 -12.8142,12.49995 z" /><path
       style="opacity:1;fill:#ffffff;fill-opacity:1;stroke:none;stroke-width:0.261093;stroke-opacity:1"
       d="m 325.21178,-68.037098 5.0115,0.0115 0.0346,20.33404 12.94927,0.0461 -0.0115,4.56219 -17.99577,0.04617 z"
       id="path18" /><path
       style="opacity:1;fill:#ffffff;fill-opacity:1;stroke:none;stroke-width:0.262325;stroke-opacity:1"
       d="m 339.1065,-67.956348 5.50954,0.0116 6.95569,11.32191 7.13855,-11.32191 5.39774,-0.003 -9.91575,16.06995 -0.008,8.92146 -5.18915,3e-5 0.0246,-8.92145 z"
       id="path19" /><path
       style="fill:#0e9aa7;fill-opacity:1;stroke:none;stroke-width:0.0872458"
       d="m 215.74529,-66.927816 32.05675,-15.179763 -3.71951,8.911343 -22.00465,10.4173 -0.0341,30.94248 -6.31174,-6.99674"
       id="path20" /><path
       style="fill:#0e9aa7;fill-opacity:1;stroke:none;stroke-width:0.0872458"
       d="m 225.03043,-60.883256 14.25749,-6.73353 -14.26682,27.17966 0.0242,-13.42134 z"
       id="path21" /><path
       style="fill:#0e9aa7;fill-opacity:1;stroke:none;stroke-width:0.0872458"
       d="m 215.74529,-66.927816 32.05675,-15.179763 -3.71951,8.911343 -22.00465,10.4173 -0.0341,30.94248 -6.31174,-6.99674"
       id="path28" /><path
       style="fill:#0e9aa7;fill-opacity:1;stroke:none;stroke-width:0.0872458"
       d="m 225.03043,-60.883256 14.25749,-6.73353 -14.26682,27.17966 0.0242,-13.42134 z"
       id="path33" /></g></svg>
